<svg width="64" height="64" viewBox="0 0 64 64" fill="none" xmlns="http://www.w3.org/2000/svg">
<rect width="64" height="64" rx="16" fill="#FB7299"/>
<path d="M46.1669 27.7158C46.303 27.7385 47.369 27.5003 47.4143 27.5797C47.4824 27.6818 47.9587 31.1065 47.8339 31.1292C47.7092 31.1519 46.8246 31.356 46.8246 31.356C46.7566 30.891 46.1783 28.0106 46.1669 27.7158V27.7158ZM47.8679 27.3869L48.3329 31.0725C48.571 31.0611 49.5349 30.9931 49.6257 30.9818C49.4896 29.5869 49.2514 27.3869 49.2514 27.3869C48.7978 27.2962 48.3215 27.2962 47.8679 27.3869V27.3869ZM46.9494 32.5013C46.9494 32.5013 49.0473 31.9683 49.8071 32.2292C50.1927 33.624 50.8958 41.4487 50.9638 41.7663C50.4875 41.823 48.9226 41.959 48.7978 41.9931C48.6958 41.4034 46.9494 32.8756 46.9494 32.5013ZM54.7174 27.8065C54.8422 27.8405 55.9535 27.6931 55.9648 27.7725C55.9875 28.0446 56.1009 31.3333 55.9762 31.3446C55.8514 31.356 54.9669 31.4354 54.9669 31.4354C54.9442 30.9818 54.6947 28.1127 54.7174 27.8065V27.8065ZM56.4298 27.7158L56.5205 31.356C56.7586 31.356 57.7112 31.4127 57.8133 31.4013C57.7906 30.0065 57.8133 27.8065 57.8133 27.8065C57.3597 27.7271 56.8947 27.6931 56.4298 27.7158V27.7158ZM54.9669 32.6034C54.9669 32.6034 57.1102 32.3199 57.836 32.6601C57.9947 34.2931 57.972 41.9023 57.9947 42.2199C57.5071 42.2199 55.9535 42.2426 55.8287 42.2652C55.8061 41.6755 54.9329 32.9776 54.9669 32.6034ZM49.9886 23.2477C51.2246 29.5529 52.1659 40.3261 52.1999 41.0178C52.1999 41.0178 53.1751 41.0405 54.2751 41.1085C53.6288 34.3158 52.8349 23.4632 52.8463 23.1117C52.5741 22.8055 49.9886 23.2477 49.9886 23.2477V23.2477ZM47.2669 38.1601C47.0288 36.391 40.7009 34.3838 37.1401 35.0302C37.1401 35.0302 36.6979 31.1292 36.5278 27.3529C36.3803 24.1096 36.5051 20.957 36.5391 20.4354C36.301 20.2653 33.7381 21.49 32.3546 22.0003C32.3546 22.0003 34.0102 29.0086 35.2123 43.5467C35.2123 43.5467 37.1288 43.7508 40.4174 43.1157C43.7061 42.4807 47.5958 40.4962 47.2669 38.1601ZM39.5329 41.3467L38.9772 37.3436C39.1133 37.2756 42.5267 38.5457 42.8896 38.7725C42.8329 39.0219 39.5329 41.3467 39.5329 41.3467ZM19.8123 27.7158C19.9484 27.7385 21.0144 27.5003 21.0598 27.5797C21.1278 27.6818 21.6041 31.1065 21.4793 31.1292C21.3546 31.1519 20.4701 31.356 20.4701 31.356C20.402 30.891 19.8237 28.0106 19.8123 27.7158V27.7158ZM21.5134 27.3869L21.9783 31.0725C22.2165 31.0611 23.1804 30.9931 23.2711 30.9818C23.1237 29.5869 22.8969 27.3869 22.8969 27.3869C22.4433 27.2962 21.967 27.2962 21.5134 27.3869V27.3869ZM20.5948 32.5013C20.5948 32.5013 22.6927 31.9683 23.4525 32.2292C23.8381 33.624 24.5412 41.4487 24.6092 41.7663C24.1329 41.823 22.568 41.959 22.4433 41.9931C22.3412 41.4034 20.5948 32.8756 20.5948 32.5013V32.5013ZM28.3628 27.8065C28.4876 27.8405 29.5989 27.6931 29.6103 27.7725C29.6329 28.0446 29.7463 31.3333 29.6216 31.3446C29.4968 31.356 28.6123 31.4354 28.6123 31.4354C28.5896 30.9818 28.3515 28.1127 28.3628 27.8065ZM30.0752 27.7158L30.1659 31.356C30.4041 31.356 31.3566 31.4127 31.4587 31.4013C31.436 30.0065 31.4587 27.8065 31.4587 27.8065C31.0051 27.7271 30.5401 27.7044 30.0752 27.7158V27.7158ZM28.6123 32.6034C28.6123 32.6034 30.7556 32.3199 31.4814 32.6601C31.6401 34.2931 31.6175 41.9023 31.6401 42.2199C31.1525 42.2199 29.5989 42.2426 29.4742 42.2652C29.4628 41.6755 28.5783 32.9776 28.6123 32.6034V32.6034ZM23.634 23.2477C24.8701 29.5529 25.8113 40.3261 25.8453 41.0178C25.8453 41.0178 26.8206 41.0405 27.9206 41.1085C27.2742 34.3158 26.4804 23.4632 26.4917 23.1003C26.2195 22.8055 23.634 23.2477 23.634 23.2477V23.2477ZM20.9123 38.1601C20.6742 36.391 14.3464 34.3838 10.7856 35.0302C10.7856 35.0302 10.3433 31.1292 10.1732 27.3529C10.0258 24.1096 10.1505 20.957 10.1845 20.4354C9.94638 20.2766 7.3835 21.49 6 22.0003C6 22.0003 7.65567 29.0086 8.85773 43.5467C8.85773 43.5467 10.7742 43.7508 14.0629 43.1157C17.3515 42.4807 21.2412 40.4962 20.9123 38.1601ZM13.1783 41.3467L12.6227 37.3436C12.7587 37.2756 16.1721 38.5457 16.535 38.7725C16.4783 39.0219 13.1783 41.3467 13.1783 41.3467" fill="white"/>
</svg>
