<svg width="64" height="64" viewBox="0 0 64 64" fill="none" xmlns="http://www.w3.org/2000/svg">
<rect width="64" height="64" rx="16" fill="#06DB28"/>
<path d="M14.9663 48.1047C14.9663 48.2428 15.0782 48.3547 15.2163 48.3547H48.7835V48.1047H49.0335V44.7875C49.0335 44.6495 48.9216 44.5375 48.7835 44.5375H39.4202C40.6553 42.6625 41.8429 40.4552 42.9871 37.9209C43.0375 37.8092 42.9996 37.6775 42.8975 37.6097L41.0054 36.3536H44.9249C45.063 36.3536 45.1749 36.2416 45.1749 36.1036V23.0196C45.1749 22.8815 45.063 22.7696 44.9249 22.7696H19.4187C19.2806 22.7696 19.1687 22.8815 19.1687 23.0196V36.1079C19.1687 36.2459 19.2806 36.3579 19.4187 36.3579H23.0987L21.2248 37.5739C21.168 37.6108 21.1286 37.669 21.1155 37.7354C21.1025 37.8018 21.1169 37.8706 21.1555 37.9262C22.4519 39.7935 23.6924 41.9994 24.8684 44.5418H15.2163C15.0782 44.5418 14.9663 44.6538 14.9663 44.7918V48.1047ZM48.0487 19.4239C48.1868 19.4239 48.2987 19.3119 48.2987 19.1739V15.8997C48.2987 15.7616 48.1868 15.6497 48.0487 15.6497H16.1745C16.0364 15.6497 15.9245 15.7616 15.9245 15.8997V19.1739C15.9245 19.3119 16.0364 19.4239 16.1745 19.4239H48.0487ZM29.1485 44.5375C27.9075 41.6424 26.5338 38.9131 25.0342 36.3536H39.1874C38.1193 39.046 36.7092 41.7752 34.9523 44.5375H29.1485ZM23.2265 26.6426H41.0956V32.5622H23.2265V26.6426Z" fill="white" stroke="white" stroke-width="0.5" stroke-linejoin="round"/>
</svg>
