<svg width="64" height="64" viewBox="0 0 64 64" fill="none" xmlns="http://www.w3.org/2000/svg">
<rect width="64" height="64" rx="16" fill="#0B0D28"/>
<path d="M47.2625 27.7834C44.1312 27.7834 41.086 26.7567 38.5817 24.8555V38.1105C38.5817 44.8792 33.4153 50.3609 27.0408 50.3609C20.6663 50.3609 15.5 44.8792 15.5 38.1105C15.5 31.3419 20.6663 25.8584 27.0408 25.8584C27.6788 25.8584 28.2967 25.9134 28.8998 26.0197V33.0414C28.3235 32.8118 27.7089 32.6936 27.0885 32.693C24.245 32.693 21.9368 35.1405 21.9368 38.1619C21.9368 41.1777 24.245 43.627 27.0885 43.627C29.9302 43.627 32.2365 41.1777 32.2365 38.1619V11.8334H38.6733C38.6733 16.8934 42.5398 20.9945 47.3083 20.9945V27.7779L47.2625 27.7815" fill="#03FBFF"/>
<path d="M48.4559 29.5873C45.3198 29.5862 42.2703 28.5586 39.7732 26.6613V39.9163C39.7732 46.685 34.6069 52.1667 28.2324 52.1667C21.8597 52.1667 16.6934 46.685 16.6934 39.9163C16.6934 33.1477 21.8597 27.666 28.2324 27.666C28.8704 27.666 29.49 27.721 30.0932 27.8273V34.849C29.5169 34.6194 28.9022 34.5012 28.2819 34.5007C25.4384 34.5007 23.1302 36.9482 23.1302 39.9695C23.1302 42.9872 25.4384 45.4365 28.2819 45.4365C31.1235 45.4365 33.4299 42.9872 33.4299 39.9695V13.6392H39.8667C39.8667 18.6992 43.7332 22.8003 48.5017 22.8003V29.5837L48.4559 29.5873Z" fill="#FD1753"/>
<path fill-rule="evenodd" clip-rule="evenodd" d="M38.5816 24.8555C41.0859 26.7567 44.1311 27.7833 47.2624 27.7833V27.7815L47.3082 27.7778V22.7135C44.5201 22.3046 42.157 20.4833 40.8815 17.9521C39.8694 16.7563 39.1495 15.2766 38.8409 13.6392H33.4299V39.9695C33.4299 42.9872 31.1235 45.4365 28.2819 45.4365C26.1619 45.4365 24.3395 44.0751 23.5494 42.1317C22.5565 41.1352 21.9367 39.7246 21.9367 38.1618C21.9367 35.1405 24.2449 32.693 27.0884 32.693C27.7088 32.6936 28.3234 32.8118 28.8997 33.0413V27.6863C28.6795 27.6728 28.4571 27.666 28.2324 27.666C21.8597 27.666 16.6934 33.1477 16.6934 39.9163C16.6934 42.1366 17.2493 44.2184 18.2213 46.0137C20.3382 48.6729 23.5034 50.3608 27.0407 50.3608C33.4152 50.3608 38.5816 44.8792 38.5816 38.1105V24.8555Z" fill="white"/>
</svg>
