<svg width="64" height="64" viewBox="0 0 64 64" fill="none" xmlns="http://www.w3.org/2000/svg">
<rect width="64" height="64" rx="16" fill="white"/>
<path d="M31.9804 10.604C19.8362 10.5991 10 20.4303 10 32.5647C10 42.1603 16.1531 50.317 24.7223 53.3125C25.8763 53.6022 25.6996 52.7821 25.6996 52.2223V48.4165C19.0357 49.1973 18.7656 44.7875 18.3188 44.0509C17.4152 42.5089 15.279 42.1161 15.9174 41.3795C17.4348 40.5986 18.9817 41.5759 20.7741 44.2228C22.0705 46.1428 24.5996 45.8187 25.8813 45.4995C26.1612 44.3455 26.7603 43.3143 27.5853 42.5138C20.6808 41.2763 17.8031 37.0629 17.8031 32.054C17.8031 29.6232 18.6036 27.3888 20.175 25.5866C19.1732 22.6156 20.2683 20.0719 20.4156 19.6937C23.2688 19.4384 26.2348 21.7366 26.4656 21.9183C28.0862 21.4812 29.9375 21.2504 32.0098 21.2504C34.092 21.2504 35.9482 21.4911 37.5835 21.933C38.1384 21.5107 40.8884 19.5366 43.5402 19.7772C43.6826 20.1553 44.7531 22.6402 43.8103 25.5719C45.4013 27.379 46.2116 29.633 46.2116 32.0687C46.2116 37.0875 43.3143 41.3058 36.3902 42.5236C36.9833 43.1069 37.4542 43.8025 37.7754 44.5697C38.0966 45.337 38.2618 46.1606 38.2612 46.9924V52.517C38.3005 52.9589 38.2612 53.396 38.9978 53.396C47.6946 50.4643 53.9558 42.2486 53.9558 32.5696C53.9558 20.4303 44.1147 10.604 31.9804 10.604V10.604Z" fill="black" fill-opacity="0.7"/>
</svg>
