<svg width="64" height="64" viewBox="0 0 64 64" fill="none" xmlns="http://www.w3.org/2000/svg">
<rect width="64" height="64" rx="16" fill="#1A7BFF"/>
<path d="M27.5397 18.7754L27.6381 18.6967L27.8882 18.4966C28.0268 18.3782 28.9443 17.6493 29.9266 16.8735C30.4203 16.4835 30.8748 16.1297 31.2091 15.8725C31.3762 15.7439 31.5135 15.6393 31.6107 15.5664C31.6592 15.53 31.6981 15.5012 31.7259 15.4811C31.7397 15.4712 31.7514 15.4629 31.7604 15.4569C31.7648 15.4539 31.7695 15.4508 31.774 15.4482C31.7761 15.4469 31.7792 15.4451 31.7827 15.4432L31.7829 15.4431C31.785 15.4421 31.794 15.4374 31.806 15.4344L31.8179 15.4314H31.8303C31.8506 15.4314 31.8664 15.4377 31.8698 15.4391L31.8701 15.4392C31.8762 15.4416 31.8814 15.4442 31.885 15.4461C31.8925 15.45 31.9004 15.4548 31.9078 15.4595C31.9231 15.4691 31.9429 15.4825 31.9659 15.4986C32.0123 15.5311 32.0762 15.5777 32.1529 15.6347C32.3066 15.7488 32.5141 15.9065 32.7414 16.0815C33.1959 16.4314 33.731 16.8516 34.0746 17.1322L34.0773 17.1344L34.0772 17.1344C34.1248 17.176 34.5805 17.5382 35.0974 17.9416L27.5397 18.7754ZM27.5397 18.7754L27.6387 18.8534M27.5397 18.7754L27.6387 18.8534M27.6387 18.8534L28.1093 19.2236C28.1094 19.2237 28.1096 19.2238 28.1097 19.2239C28.1653 19.2687 28.2205 19.313 28.2732 19.3554C28.4665 19.5107 28.6277 19.6404 28.6656 19.6735C28.6921 19.6967 28.892 19.856 29.1895 20.0931C29.479 20.3237 29.8608 20.6279 30.2654 20.9523L30.2657 20.9525M27.6387 18.8534L30.2657 20.9525M30.2657 20.9525L31.768 22.1468L31.8285 22.1949M30.2657 20.9525L31.8285 22.1949M31.8285 22.1949L31.8902 22.1486M31.8285 22.1949L31.8902 22.1486M31.8902 22.1486L32.1166 21.9788L32.1166 21.9788M31.8902 22.1486L32.1166 21.9788M32.1166 21.9788C32.2061 21.9117 32.6663 21.5454 33.2615 21.0718C33.5121 20.8724 33.7865 20.654 34.0673 20.4308L34.0676 20.4306M32.1166 21.9788L34.0676 20.4306M34.0676 20.4306C34.5389 20.0536 34.9818 19.7018 35.3147 19.4395C35.4812 19.3084 35.62 19.1998 35.721 19.1217C35.7716 19.0826 35.8124 19.0513 35.8424 19.0288C35.8574 19.0175 35.8695 19.0086 35.8785 19.0021C35.8842 18.9979 35.8879 18.9954 35.8899 18.994C35.8915 18.9929 35.8921 18.9925 35.892 18.9926L35.892 18.9926M34.0676 20.4306L35.892 18.9926M35.892 18.9926L35.8943 18.9912M35.892 18.9926L35.8943 18.9912M35.8943 18.9912C35.9335 18.9662 35.9694 18.9382 35.9969 18.9107M35.8943 18.9912L35.9969 18.9107M31.7698 30.9658L31.7701 30.966C31.7734 30.9681 31.7758 30.9696 31.7776 30.9707C31.7886 30.9679 31.8159 30.9582 31.8725 30.9253C32.0096 30.8456 32.2671 30.662 32.7831 30.2674C33.8115 29.4807 35.8472 27.8708 39.9522 24.6238L40.0133 24.701L39.9522 24.6238C40.4023 24.2682 40.8196 23.9485 41.1286 23.7198C41.283 23.6056 41.4111 23.5136 41.5031 23.451C41.5488 23.4199 41.5871 23.395 41.6158 23.3783C41.6298 23.3701 41.6441 23.3622 41.6572 23.3566C41.6634 23.3539 41.6731 23.35 41.6844 23.3475C41.6901 23.3462 41.6994 23.3445 41.7107 23.3446C41.7203 23.3448 41.7384 23.3463 41.7579 23.3566C41.7737 23.3648 41.7962 23.3812 41.8158 23.3956C41.8401 23.4135 41.8721 23.4378 41.9105 23.4674C41.9874 23.5267 42.0915 23.6084 42.2133 23.705C42.457 23.8981 42.7727 24.1513 43.0864 24.4044C43.4 24.6575 43.7117 24.9107 43.9475 25.1038C44.0653 25.2003 44.1644 25.2819 44.2352 25.3411C44.2706 25.3707 44.2993 25.3949 44.3199 25.4126C44.3301 25.4215 44.3388 25.4291 44.3455 25.4352C44.3485 25.4379 44.3604 25.4485 44.3685 25.4593L44.3765 25.47L44.3814 25.4823C44.3959 25.5186 44.385 25.5498 44.3821 25.5578C44.3777 25.5698 44.372 25.5792 44.3685 25.5847C44.3609 25.5962 44.3516 25.6073 44.3432 25.6167C44.3257 25.6362 44.3009 25.6607 44.2712 25.6885C44.2113 25.7446 44.1241 25.8209 44.0168 25.9116C43.8019 26.0934 43.5023 26.3362 43.1685 26.5976C42.6411 27.0105 41.7867 27.6835 41.0575 28.2579C40.8656 28.409 40.6824 28.5533 40.5161 28.6843L40.4543 28.6057M31.7698 30.9658L31.6857 35.2811L31.6295 35.3638C31.6297 35.3639 31.6299 35.3641 31.6302 35.3643C31.6682 35.3901 31.7033 35.4136 31.7352 35.43C31.7684 35.447 31.8072 35.4613 31.8521 35.4596C31.8969 35.4579 31.9346 35.4408 31.9666 35.4213C31.9975 35.4025 32.0313 35.3763 32.0679 35.3472C32.3004 35.1671 32.5312 34.9846 32.7601 34.7999C32.9553 34.6461 33.1704 34.4754 33.328 34.3504C33.4084 34.2866 33.4739 34.2347 33.5139 34.2031C34.8076 33.1856 36.9528 31.4934 37.0297 31.4294L37.0297 31.4294L37.0316 31.4278C37.0607 31.4023 37.2516 31.2524 37.5185 31.0429C37.6878 30.91 37.8876 30.7531 38.0962 30.5888C38.2765 30.4466 38.5209 30.2548 38.7961 30.0388C39.3351 29.6158 39.992 29.1002 40.5164 28.684L40.4543 28.6057M31.7698 30.9658C31.7095 30.9285 31.5904 30.8415 31.1988 30.5359C30.8094 30.2321 30.1544 29.7153 29.026 28.8227L29.026 28.8226C28.9135 28.7338 28.7991 28.643 28.6904 28.5568C28.4254 28.3466 28.1941 28.1631 28.1069 28.0987L31.7698 30.9658ZM40.4543 28.6057C40.6204 28.4749 40.8034 28.3307 40.9951 28.1797C41.7244 27.6052 42.5792 26.932 43.1068 26.5188C43.7731 25.9971 44.3011 25.5508 44.2886 25.5194L36.9657 31.3526M40.4543 28.6057C39.9301 29.0217 39.2737 29.5369 38.7348 29.9598C38.4595 30.1758 38.2149 30.3678 38.0343 30.5102C37.831 30.6704 37.6351 30.8242 37.4675 30.9558C37.1945 31.1701 36.9969 31.3253 36.9657 31.3526M36.9657 31.3526C36.8902 31.4154 34.7468 33.1062 33.452 34.1245C33.4115 34.1565 33.3457 34.2087 33.265 34.2728C33.1075 34.3977 32.893 34.5679 32.6977 34.7217C32.469 34.9062 32.2385 35.0885 32.0062 35.2685L36.9657 31.3526ZM35.9969 18.9107C36.0105 18.8971 36.0241 18.8816 36.035 18.8648M35.9969 18.9107L36.035 18.8648M36.035 18.8648C36.044 18.851 36.06 18.823 36.06 18.7874M36.035 18.8648L36.06 18.7874M36.06 18.7874C36.06 18.7667 36.0536 18.7513 36.0511 18.7458M36.06 18.7874L36.0511 18.7458M36.0511 18.7458C36.048 18.7387 36.0447 18.7333 36.0426 18.7301M36.0511 18.7458L36.0426 18.7301M36.0426 18.7301C36.0384 18.7237 36.0341 18.7184 36.0313 18.7151M36.0426 18.7301L36.0313 18.7151M36.0313 18.7151C36.0254 18.7082 36.0183 18.7009 36.0115 18.6942M36.0313 18.7151L36.0115 18.6942M36.0115 18.6942C35.9973 18.6802 35.9776 18.662 35.9538 18.6407M36.0115 18.6942L35.9538 18.6407M35.9538 18.6407C35.9058 18.5978 35.8371 18.5389 35.753 18.4687M35.9538 18.6407L35.753 18.4687M35.753 18.4687C35.5847 18.328 35.3529 18.1404 35.0975 17.9417L35.753 18.4687Z" fill="white" stroke="white" stroke-width="0.2"/>
<path d="M12.2069 31.1258H12.2062L12.4263 30.948C12.7535 30.6837 13.059 30.4412 13.2876 30.2646C13.4018 30.1764 13.4975 30.1041 13.5673 30.0537C13.6021 30.0286 13.6316 30.0081 13.6542 29.9936C13.6654 29.9864 13.6765 29.9796 13.6866 29.9743C13.6916 29.9717 13.698 29.9685 13.7052 29.9658L13.7053 29.9657C13.7093 29.9642 13.7226 29.9591 13.7399 29.958M12.2069 31.1258L13.7463 30.0578M12.2069 31.1258C11.9635 31.3237 11.7397 31.5076 11.561 31.656C11.3374 31.8415 11.1785 31.976 11.1444 32.0091L11.1388 32.0141C11.1384 32.0144 11.138 32.0147 11.1376 32.0151C11.1351 32.0172 11.1313 32.0204 11.1278 32.0236C11.1201 32.0306 11.1044 32.0453 11.0929 32.0673C11.062 32.1261 11.0845 32.182 11.1077 32.218C11.1302 32.2529 11.168 32.2932 11.2204 32.3425C11.2745 32.3934 11.3501 32.4592 11.4539 32.5459C11.8267 32.857 12.5805 33.4506 14.0611 34.6167C14.2278 34.748 14.4038 34.8866 14.5895 35.0328C15.5303 35.7747 15.8398 36.0192 16.2497 36.343C16.4614 36.5102 16.6999 36.6986 17.066 36.9877L17.0661 36.9877C17.1499 37.0538 17.2572 37.1386 17.3824 37.2374C17.9236 37.6647 18.7986 38.3555 19.5491 38.9427C20.4235 39.6328 20.9139 40.0193 21.2317 40.2698C21.5093 40.4886 21.6552 40.6036 21.8102 40.7264C21.8785 40.7845 22.3316 41.1407 22.9358 41.6158C23.2025 41.8255 23.4986 42.0584 23.8042 42.299C24.5005 42.8508 25.7733 43.854 27.0445 44.856C27.5982 45.2924 28.1516 45.7286 28.6569 46.1272L28.6571 46.1273C29.4931 46.7841 30.2569 47.3829 30.8157 47.8191C31.0951 48.0371 31.3233 48.2147 31.4837 48.3385C31.5639 48.4004 31.6273 48.449 31.6718 48.4826C31.6813 48.4898 31.69 48.4964 31.6979 48.5023C31.7084 48.5101 31.7174 48.5168 31.7248 48.5222C31.7312 48.5269 31.737 48.531 31.7418 48.5343L31.7498 48.5395C31.7505 48.54 31.7582 48.545 31.7679 48.5489L31.768 48.5489C31.799 48.5613 31.827 48.5554 31.8351 48.5537C31.8473 48.5511 31.8585 48.5469 31.867 48.5434C31.8844 48.5361 31.9039 48.5258 31.9236 48.5144C31.9636 48.4913 32.0154 48.4574 32.0744 48.4163C32.1929 48.3339 32.347 48.2179 32.5084 48.0882C33.446 47.3582 36.3867 45.0395 36.8707 44.6562L36.8708 44.6561L36.915 44.621C37.1522 44.4324 37.4311 44.2106 37.5543 44.1168L37.5544 44.1168L37.5567 44.1149C37.6255 44.0592 37.7002 43.9998 37.7605 43.9519C37.8129 43.9103 37.8545 43.8772 37.872 43.8626L37.8723 43.8629L37.8787 43.8565C37.8786 43.8566 37.8786 43.8566 37.8789 43.8564C37.8794 43.8558 37.8814 43.854 37.8855 43.8505L37.9057 43.8335C37.9227 43.8194 37.9458 43.8005 37.9746 43.7773C38.0321 43.7309 38.111 43.6681 38.2056 43.5931C38.3633 43.4681 38.5641 43.3098 38.7814 43.1386L38.9127 43.0351C38.9128 43.035 38.9129 43.0349 38.9131 43.0348C39.8053 42.3437 41.4533 41.048 41.6812 40.858L41.6812 40.858L41.683 40.8564C41.7301 40.8152 41.8966 40.6856 42.0548 40.5654L42.0548 40.5654C42.196 40.458 42.3571 40.3259 42.4392 40.2584C42.4495 40.25 42.4586 40.2425 42.4662 40.2363C42.5344 40.1805 43.0988 39.7353 43.7217 39.2445C44.8626 38.3501 45.4336 37.9001 47.032 36.6406L47.5248 36.2523L47.4629 36.1738L47.5248 36.2523C47.8448 36.0001 48.1497 35.761 48.3968 35.5671C48.7155 35.3171 48.9381 35.1425 48.973 35.1125C49.0645 35.0374 49.9147 34.3669 50.5291 33.8824C50.663 33.7769 50.7857 33.6801 50.8869 33.6003C50.9913 33.5212 51.0892 33.4438 51.1636 33.3837C51.2353 33.3257 51.2909 33.2792 51.3051 33.265L51.3058 33.2656L51.3112 33.2585C51.3123 33.2574 51.3143 33.2556 51.3174 33.2529C51.3249 33.2463 51.3358 33.2371 51.3501 33.2255C51.3786 33.2022 51.4181 33.1709 51.4663 33.1333C51.5329 33.0814 51.6146 33.0183 51.7045 32.949C51.7446 32.918 51.7864 32.8858 51.8292 32.8528C52.1068 32.6445 52.3971 32.411 52.4806 32.3404L52.4816 32.3395L52.6262 32.2138L52.7179 32.1341L52.6221 32.0594L52.1961 31.7275C52.1959 31.7273 52.1956 31.7271 52.1954 31.7269C52.0947 31.6453 51.9989 31.5685 51.9211 31.5061L51.8861 31.4781C51.8445 31.4447 51.8097 31.4168 51.7843 31.3961L51.7541 31.3713C51.7484 31.3666 51.7457 31.3642 51.7448 31.3634C51.7316 31.3497 51.7079 31.329 51.6829 31.3076C51.6519 31.2811 51.6104 31.2463 51.5613 31.2058C51.4632 31.1246 51.3338 31.0192 51.1957 30.9078C50.9202 30.6857 50.6084 30.4384 50.4402 30.3115C50.3567 30.2465 50.28 30.1836 50.2231 30.1336C50.1945 30.1084 50.172 30.0874 50.1564 30.0715C50.1491 30.0641 50.1442 30.0587 50.1413 30.0552C50.1276 30.0264 50.1053 29.9969 50.0694 29.9775C50.0312 29.957 49.9904 29.9549 49.9543 29.96C49.8872 29.9696 49.8072 30.0087 49.7136 30.066C49.5212 30.1836 49.2162 30.414 48.7334 30.7965C48.156 31.2483 47.6269 31.664 47.5567 31.7215L47.5566 31.7214L47.5528 31.7249C47.5131 31.761 47.3608 31.8805 47.1584 32.0392C47.0246 32.1442 46.869 32.2664 46.7096 32.3928C46.5115 32.5469 46.3276 32.6916 46.1907 32.8001C46.1222 32.8544 46.0654 32.8998 46.0245 32.9329C45.9872 32.963 45.9562 32.9882 45.9465 32.9978C45.9471 32.9973 45.9469 32.9974 45.9457 32.9984C45.9442 32.9998 45.9407 33.0028 45.9346 33.008C45.9254 33.0157 45.9128 33.0262 45.8968 33.0392C45.8649 33.0653 45.8207 33.1009 45.7671 33.1436C45.66 33.2288 45.516 33.3415 45.3595 33.4604L45.3587 33.461C45.26 33.5376 45.1568 33.6172 45.0588 33.6928C44.8528 33.8517 44.6693 33.9933 44.5959 34.0537L44.6595 34.1309L44.5959 34.0537C44.4393 34.1826 44.3884 34.223 44.1169 34.4382C44.0194 34.5156 43.8933 34.6155 43.7237 34.7502C43.6346 34.8205 43.5433 34.8918 43.4615 34.9558C43.3273 35.0607 43.2184 35.1458 43.1856 35.1744L43.1855 35.1745C43.1381 35.2161 42.3185 35.8606 41.367 36.6041L41.3667 36.6044C40.4183 37.3518 39.581 38.0127 39.511 38.0701L39.5109 38.0699L39.507 38.0735C39.4415 38.133 38.8935 38.5628 38.287 39.0367C37.6834 39.5082 36.533 40.4135 35.7283 41.0484L35.728 41.0486C35.0428 41.5936 34.1954 42.259 33.6909 42.6552C33.6079 42.7204 33.5342 42.7783 33.472 42.8271C33.0321 43.1728 32.4723 43.613 32.2269 43.808L32.2265 43.8083L31.8388 44.1197L31.713 44.0317L31.7123 44.0311C31.6626 43.9938 31.6135 43.957 31.5744 43.9271C31.5546 43.912 31.5377 43.8989 31.5249 43.8886L31.5096 43.8761C31.5061 43.8732 31.5047 43.8719 31.5047 43.8719L31.5049 43.8721C31.4901 43.8574 31.4306 43.8087 31.3542 43.7482C31.2744 43.685 31.1687 43.603 31.055 43.5177C30.5492 43.1243 30.4368 43.0368 30.3456 42.9579C30.2981 42.9118 30.1508 42.7973 30.0172 42.7L12.2069 31.1258ZM13.7399 29.958C13.742 29.9578 13.7441 29.9578 13.7463 29.9578V30.0578M13.7399 29.958C13.7392 29.958 13.7386 29.9581 13.7379 29.9581L13.7463 30.0578M13.7399 29.958C13.771 29.9558 13.7993 29.9639 13.8244 29.9745C13.8498 29.9853 13.8789 30.0017 13.9135 30.0239C13.9832 30.0685 14.089 30.1452 14.2564 30.2729C14.592 30.529 15.1853 30.9979 16.2533 31.8461M13.7463 30.0578C13.8217 30.0515 14.0543 30.2275 16.1914 31.9246M16.2533 31.8461C16.2533 31.846 16.2532 31.846 16.2531 31.8459L16.1914 31.9246M16.2533 31.8461C16.6165 32.1305 17.5203 32.8432 18.536 33.644C18.9809 33.9948 19.4473 34.3626 19.899 34.7186M16.2533 31.8461C16.2534 31.8462 16.2535 31.8463 16.2536 31.8463L16.1914 31.9246M16.1914 31.9246L19.899 34.7186M19.899 34.7186C19.899 34.7186 19.899 34.7186 19.899 34.7186L19.8371 34.7972L19.899 34.7186ZM19.899 34.7186C23.8242 37.8099 25.0233 38.7565 25.2732 38.9614M19.899 34.7186L25.2114 39.04M25.2732 38.9614C25.2726 38.9609 25.272 38.9605 25.2714 38.96L25.2114 39.04M25.2732 38.9614C25.2737 38.9618 25.2743 38.9623 25.2749 38.9627L25.2114 39.04M25.2732 38.9614C25.4051 39.0605 26.1388 39.6375 26.9076 40.2437M25.2114 39.04C25.3371 39.1343 26.0726 39.7126 26.8457 40.3223M26.9076 40.2437C26.9075 40.2437 26.9074 40.2436 26.9074 40.2436L26.8457 40.3223M26.9076 40.2437C27.6825 40.85 28.3642 41.3864 28.4266 41.4415M26.9076 40.2437C26.9076 40.2438 26.9076 40.2438 26.9077 40.2438L26.8457 40.3223M26.8457 40.3223L28.4266 41.4415M28.4266 41.4415C28.4267 41.4416 28.4269 41.4418 28.427 41.4419L28.3606 41.5166L28.4265 41.4414C28.4265 41.4414 28.4265 41.4415 28.4266 41.4415ZM50.1388 30.052C50.1388 30.052 50.1391 30.0523 50.1395 30.0529L50.1388 30.052Z" fill="white" stroke="white" stroke-width="0.2"/>
</svg>
