<svg width="64" height="64" viewBox="0 0 64 64" fill="none" xmlns="http://www.w3.org/2000/svg">
<rect width="64" height="64" rx="16" fill="#1A7BFF"/>
<path d="M29.9886 16.952C29.0017 17.7314 28.084 18.4606 27.952 18.5737L27.7006 18.7748L28.172 19.1457C28.4297 19.3531 28.6812 19.5542 28.7314 19.5982C28.7817 19.6422 29.5046 20.2142 30.328 20.8742L31.8302 22.0686L32.0566 21.8988C32.1823 21.8046 33.056 21.1068 34.0051 20.3526C34.948 19.5982 35.7777 18.9446 35.8406 18.9068C35.9097 18.8628 35.96 18.8126 35.96 18.7874C35.96 18.7686 35.5451 18.4166 35.036 18.0206C34.5206 17.6182 34.0617 17.2537 34.0114 17.2097C33.3262 16.6502 31.8742 15.5314 31.8303 15.5314C31.8051 15.5377 30.9754 16.1726 29.9886 16.952V16.952ZM40.0142 24.7022C31.8051 31.1954 31.868 31.1451 31.7171 31.0508C31.5851 30.9691 31.2206 30.6862 28.964 28.9011C28.5743 28.5931 28.1657 28.2662 28.0463 28.1782C27.9268 28.084 27.6691 27.8828 27.4743 27.7257C27.2732 27.5686 27.0154 27.3674 26.9023 27.2731C26.3366 26.8331 23.8474 24.8657 22.5148 23.816C22.2634 23.6148 22.0246 23.4514 21.9931 23.4514C21.9617 23.4514 21.5217 23.7846 21.0188 24.1868C20.516 24.5954 20.0446 24.9725 19.9754 25.0228C19.9 25.0731 19.7554 25.1926 19.6548 25.2868C19.5543 25.3874 19.4474 25.4628 19.4223 25.4628C19.2903 25.4628 19.3908 25.5948 19.6988 25.84C19.8748 25.9782 20.076 26.1354 20.1326 26.1857C20.1891 26.2297 20.5726 26.5314 20.9811 26.852C21.3897 27.1726 21.9806 27.6377 22.2886 27.8828C23.1183 28.5366 23.6588 28.9702 27.7823 32.2262C29.8377 33.848 31.5977 35.2246 31.6857 35.2811C31.8428 35.388 31.8554 35.388 32.0062 35.2685C32.2385 35.0885 32.469 34.9062 32.6977 34.7217C32.9931 34.4891 33.3326 34.2188 33.452 34.1245C34.7468 33.1062 36.8902 31.4154 36.9657 31.3526C37.016 31.3086 37.5 30.9314 38.0343 30.5102C38.5685 30.0891 39.6623 29.2342 40.4543 28.6057C41.2526 27.9771 42.4406 27.0406 43.1068 26.5188C43.7731 25.9971 44.3011 25.5508 44.2886 25.5194C44.2508 25.4691 41.812 23.4954 41.7114 23.4451C41.68 23.4262 40.9131 23.992 40.0142 24.7022V24.7022Z" fill="white"/>
<path fill-rule="evenodd" clip-rule="evenodd" d="M27.7006 18.7748L28.1721 19.1457C28.2269 19.1898 28.2814 19.2337 28.3337 19.2757C28.5276 19.4316 28.6919 19.5636 28.7315 19.5983C28.7566 19.6203 28.9499 19.7743 29.2398 20.0052C29.5297 20.2363 29.9163 20.5443 30.3281 20.8743L31.8303 22.0686L32.0566 21.8989C32.1449 21.8327 32.6022 21.4688 33.1954 20.9967C33.4468 20.7966 33.7227 20.5771 34.0052 20.3526C34.948 19.5983 35.7778 18.9446 35.8406 18.9069C35.9098 18.8629 35.96 18.8126 35.96 18.7874C35.96 18.7686 35.5452 18.4166 35.036 18.0206C34.5206 17.6183 34.0618 17.2537 34.0115 17.2097C33.3263 16.6503 31.8743 15.5314 31.8304 15.5314C31.8052 15.5377 30.9755 16.1726 29.9886 16.952L29.8647 16.7951C30.3587 16.4049 30.8135 16.0508 31.1482 15.7933C31.3154 15.6646 31.453 15.5597 31.5507 15.4865C31.5994 15.4499 31.6389 15.4207 31.6675 15.4001C31.6816 15.3899 31.6943 15.3809 31.7046 15.374C31.7096 15.3706 31.7159 15.3665 31.7224 15.3626C31.7255 15.3607 31.7307 15.3576 31.737 15.3544C31.7404 15.3526 31.7583 15.3433 31.7817 15.3374L31.8057 15.3314H31.8304C31.8701 15.3314 31.9007 15.3437 31.9064 15.346C31.9171 15.3502 31.9264 15.3549 31.9316 15.3576C31.9425 15.3633 31.9529 15.3697 31.9612 15.3749C31.9786 15.3859 31.9999 15.4003 32.0233 15.4168C32.0709 15.4501 32.1356 15.4973 32.2126 15.5544C32.3669 15.669 32.575 15.8272 32.8025 16.0023C33.2573 16.3525 33.7933 16.7734 34.138 17.0548L34.1432 17.0591C34.1881 17.0984 34.6406 17.4582 35.1589 17.8628C35.4152 18.0621 35.648 18.2506 35.8172 18.392C35.9017 18.4626 35.9713 18.5223 36.0205 18.5662C36.0447 18.5878 36.0659 18.6073 36.0818 18.6231C36.0894 18.6306 36.0988 18.6401 36.1074 18.6503C36.1114 18.6549 36.1189 18.6639 36.1265 18.6756C36.1302 18.6814 36.1366 18.6917 36.1427 18.7055C36.1473 18.7159 36.16 18.7463 36.16 18.7874C36.16 18.8524 36.1312 18.9004 36.119 18.9193C36.103 18.9439 36.0843 18.9649 36.0677 18.9815C36.034 19.0152 35.992 19.0476 35.948 19.0756L35.944 19.0781C35.9437 19.0784 35.9426 19.0792 35.9406 19.0807C35.9352 19.0846 35.9233 19.0932 35.9026 19.1088C35.8731 19.1309 35.8327 19.1619 35.7823 19.2008C35.6816 19.2787 35.5431 19.3871 35.3767 19.5181C35.044 19.7802 34.6013 20.1318 34.1301 20.5088C33.851 20.7306 33.5773 20.9484 33.3275 21.1472C32.7306 21.6222 32.2674 21.9908 32.1766 22.0589L31.8268 22.3213L30.2036 21.0308C29.8058 20.712 29.4279 20.4108 29.139 20.1807C28.8342 19.9377 28.6278 19.7733 28.5998 19.7488C28.5637 19.7172 28.4055 19.59 28.213 19.4353C28.1598 19.3926 28.1041 19.3477 28.0475 19.3022C28.0472 19.302 28.0469 19.3018 28.0467 19.3015L27.3788 18.7761L27.8246 18.4196C27.9697 18.296 28.8868 17.5674 29.8647 16.7951L29.9886 16.952C29.0018 17.7315 28.0841 18.4606 27.9521 18.5737L27.7006 18.7748ZM31.7877 30.858C31.797 30.8532 31.8084 30.847 31.8223 30.8389C31.9528 30.763 32.2052 30.5836 32.7224 30.188C33.75 29.402 35.7847 27.7928 39.8902 24.5454L40.0143 24.7023C31.868 31.1458 31.8676 31.1455 31.7206 31.053C31.7195 31.0523 31.7183 31.0516 31.7172 31.0509C31.5852 30.9691 31.2206 30.6863 28.9641 28.9011C28.8503 28.8112 28.7349 28.7197 28.6255 28.6329C28.3604 28.4226 28.1309 28.2406 28.0463 28.1783C28.0171 28.1552 27.9795 28.1257 27.9367 28.092C27.8045 27.9882 27.6215 27.8444 27.4743 27.7257L27.4508 27.7074C27.2536 27.5533 27.0111 27.3638 26.9023 27.2731C26.5304 26.9839 25.3273 26.0345 24.1679 25.1197C23.5637 24.643 22.9714 24.1756 22.5149 23.816C22.2635 23.6149 22.0246 23.4514 21.9932 23.4514C21.9618 23.4514 21.5218 23.7846 21.0189 24.1869C20.5161 24.5954 20.0446 24.9726 19.9755 25.0229C19.9001 25.0731 19.7555 25.1926 19.6549 25.2869C19.5544 25.3874 19.4475 25.4629 19.4223 25.4629C19.3458 25.4629 19.3474 25.5072 19.4223 25.5923C19.437 25.6089 19.4545 25.6272 19.4748 25.6469C19.4773 25.6494 19.4799 25.6519 19.4825 25.6544C19.5365 25.7063 19.6088 25.7683 19.6989 25.84C19.7193 25.856 19.74 25.8723 19.7608 25.8886C19.9195 26.0132 20.0826 26.1412 20.1326 26.1857C20.1614 26.2082 20.2751 26.2974 20.4337 26.422C20.5864 26.542 20.7808 26.6947 20.9812 26.852C21.3897 27.1726 21.9806 27.6377 22.2886 27.8828C22.5972 28.126 22.8658 28.3386 23.2935 28.6774C24.0159 29.2495 25.1923 30.1811 27.7823 32.2263C29.8378 33.848 31.5978 35.2246 31.6858 35.2811C31.8429 35.388 31.8555 35.388 32.0063 35.2686C32.2386 35.0886 32.4691 34.9063 32.6978 34.7217C32.893 34.568 33.1075 34.3978 33.265 34.2728C33.3458 34.2087 33.4116 34.1566 33.452 34.1246C34.7469 33.1063 36.8903 31.4154 36.9658 31.3526C36.9969 31.3253 37.1946 31.1701 37.4676 30.9558C37.6352 30.8243 37.8311 30.6705 38.0343 30.5103C38.215 30.3679 38.4596 30.1759 38.7349 29.9598C39.2738 29.5369 39.9301 29.0217 40.4543 28.6057C40.6205 28.4749 40.8035 28.3308 40.9952 28.1798C41.7245 27.6053 42.5793 26.932 43.1069 26.5189C43.7732 25.9971 44.3012 25.5509 44.2886 25.5194C44.2509 25.4691 41.812 23.4954 41.7115 23.4451C41.68 23.4263 40.9132 23.992 40.0143 24.7023L39.8902 24.5454C40.3409 24.1893 40.7591 23.8689 41.0692 23.6395C41.224 23.525 41.3533 23.4321 41.4469 23.3684C41.4932 23.3369 41.5337 23.3105 41.5654 23.292C41.5804 23.2832 41.5989 23.273 41.6175 23.2649C41.6261 23.2612 41.6423 23.2545 41.6626 23.2499C41.6727 23.2477 41.6902 23.2444 41.712 23.2447C41.7315 23.245 41.7694 23.2481 41.8099 23.271C41.8326 23.2838 41.8582 23.3026 41.8737 23.314L41.8752 23.3151C41.9003 23.3336 41.933 23.3585 41.9716 23.3882C42.0491 23.4479 42.1536 23.53 42.2755 23.6266C42.5195 23.8201 42.8355 24.0735 43.1492 24.3266C43.463 24.5799 43.7749 24.8332 44.0109 25.0264C44.1288 25.123 44.2282 25.2049 44.2994 25.2644C44.3349 25.2941 44.3641 25.3187 44.3853 25.337C44.3958 25.346 44.4052 25.3543 44.4128 25.3613C44.4131 25.3616 44.4335 25.3792 44.4486 25.3994L44.4646 25.4206L44.4744 25.4453C44.503 25.5169 44.4813 25.5779 44.4761 25.5922C44.468 25.6143 44.4578 25.6309 44.4523 25.6393C44.4406 25.6572 44.4273 25.6728 44.4178 25.6834C44.3973 25.7063 44.3699 25.7332 44.3396 25.7615C44.2778 25.8194 44.1892 25.8969 44.0815 25.988C43.8653 26.1708 43.5647 26.4144 43.2302 26.6763C42.7028 27.0893 41.8482 27.7624 41.1189 28.3369C40.9274 28.4878 40.7445 28.6318 40.5784 28.7626C40.054 29.1788 39.3966 29.6948 38.8575 30.1178C38.5824 30.3337 38.3382 30.5254 38.1581 30.6674C37.9548 30.8276 37.7587 30.9815 37.5912 31.1131C37.5384 31.1545 37.4885 31.1937 37.4421 31.2301C37.345 31.3064 37.2634 31.3706 37.203 31.4185C37.1727 31.4424 37.148 31.462 37.1295 31.4769L37.1071 31.4951L37.1002 31.5008L37.0982 31.5025L37.0938 31.5063C37.0155 31.5715 34.8684 33.2652 33.5758 34.2817C33.5361 34.313 33.4711 34.3647 33.3909 34.4282C33.2334 34.5533 33.0176 34.7245 32.8224 34.8781C32.5933 35.063 32.3624 35.2457 32.1297 35.426C32.094 35.4543 32.0556 35.4843 32.0187 35.5068C31.9795 35.5307 31.9248 35.557 31.8559 35.5596C31.787 35.5622 31.7304 35.5399 31.6896 35.519C31.6511 35.4992 31.6105 35.4719 31.5733 35.4465C31.5347 35.4204 31.4003 35.3172 31.2053 35.1661C30.9954 35.0035 30.7027 34.7752 30.3486 34.4982C29.6404 33.944 28.6863 33.1943 27.6584 32.3833C25.0678 30.3377 23.8916 29.4062 23.1695 28.8343C22.7419 28.4957 22.4735 28.2831 22.1649 28.0399C21.8574 27.7953 21.2663 27.3299 20.8577 27.0093C20.6563 26.8513 20.4613 26.698 20.3085 26.578C20.1509 26.4542 20.0383 26.3658 20.0098 26.3436L19.9995 26.3355C19.9544 26.2955 19.7969 26.1712 19.6352 26.0443C19.6153 26.0286 19.5952 26.0129 19.5754 25.9973L19.5744 25.9965C19.4212 25.8746 19.2995 25.7658 19.2349 25.6786C19.2178 25.6555 19.1988 25.6262 19.1852 25.5924C19.1726 25.5613 19.1553 25.5034 19.1733 25.4358C19.1943 25.3571 19.2506 25.3091 19.3031 25.286C19.3264 25.2757 19.3496 25.2699 19.3705 25.2666C19.3762 25.2628 19.3831 25.2579 19.3913 25.2519C19.4256 25.2265 19.47 25.189 19.5135 25.1455L19.518 25.1409C19.621 25.0444 19.7717 24.9191 19.8606 24.8591C19.9337 24.8051 20.3937 24.4371 20.8928 24.0316L20.894 24.0307C21.1464 23.8288 21.3836 23.6437 21.5623 23.5087C21.6514 23.4414 21.7272 23.3855 21.7836 23.346C21.8115 23.3265 21.8369 23.3093 21.8578 23.2964C21.8679 23.2901 21.8803 23.2828 21.8931 23.2764C21.8993 23.2733 21.909 23.2687 21.9208 23.2644C21.9282 23.2617 21.9565 23.2514 21.9932 23.2514C22.0303 23.2514 22.0593 23.2616 22.0679 23.2647C22.0811 23.2693 22.0928 23.2746 22.1016 23.2789C22.1193 23.2875 22.1379 23.298 22.1556 23.3087C22.1917 23.3303 22.2363 23.3598 22.2856 23.394C22.3847 23.4628 22.5107 23.5565 22.6393 23.6594C23.0964 24.0195 23.6889 24.487 24.2931 24.9638C25.452 25.8781 26.6538 26.8264 27.0251 27.1153L27.0304 27.1194C27.1367 27.208 27.3775 27.3963 27.5766 27.5518L27.5999 27.57C27.7459 27.6878 27.9271 27.8302 28.0593 27.934C28.1013 27.967 28.1383 27.9961 28.1677 28.0193C28.1668 28.0186 28.1659 28.0179 28.1649 28.0173L28.0463 28.1783L28.1702 28.0213C28.1694 28.0206 28.1686 28.02 28.1677 28.0193C28.2575 28.0857 28.4906 28.2706 28.7553 28.4806C28.8635 28.5664 28.977 28.6564 29.0881 28.7442C30.2165 29.6369 30.8713 30.1535 31.2604 30.4571C31.5859 30.7111 31.7201 30.8117 31.7877 30.858Z" fill="white"/>
<path d="M12.4892 31.0258C11.8354 31.5538 11.2634 32.0315 11.2131 32.0818C11.1126 32.176 10.9806 32.0629 14.6514 34.9543C16.0783 36.0795 16.0531 36.0606 17.128 36.9092C17.5743 37.2612 18.6869 38.1412 19.6109 38.864C21.2514 40.1589 21.5406 40.3852 21.8737 40.6492C21.9617 40.7246 22.8606 41.4286 23.8663 42.2206C24.8657 43.0126 27.0531 44.7349 28.7189 46.0486C30.3909 47.3623 31.7737 48.4435 31.8051 48.456C31.8366 48.4686 32.1257 48.2675 32.4463 48.0098C33.3829 47.2806 36.3246 44.9612 36.8086 44.5778C37.0537 44.3829 37.3617 44.1378 37.4937 44.0372C37.6257 43.9303 37.7703 43.8172 37.808 43.7858C37.8457 43.748 38.3172 43.3772 38.8514 42.956C39.744 42.2646 41.3909 40.9698 41.6171 40.7812C41.6674 40.7372 41.8371 40.6052 41.9943 40.4858C42.1514 40.3663 42.3337 40.2155 42.4029 40.1589C42.472 40.1023 43.0377 39.656 43.66 39.1658C44.9108 38.1852 45.4766 37.7389 47.4629 36.1738C48.2046 35.5892 48.8583 35.08 48.9086 35.036C49.0154 34.948 50.26 33.9675 50.8257 33.5212C51.0331 33.364 51.2155 33.2132 51.2343 33.1943C51.2532 33.1692 51.492 32.9869 51.7686 32.7732C52.0451 32.5658 52.3343 32.3332 52.416 32.264L52.5606 32.1383L52.1331 31.8052C51.9006 31.6166 51.6931 31.4532 51.6743 31.4344C51.624 31.3778 50.7126 30.6423 50.3794 30.3909C50.2097 30.2589 50.0651 30.1332 50.0526 30.1017C49.996 29.9698 49.7634 30.108 48.7954 30.8749C48.2171 31.3275 47.6892 31.7423 47.62 31.7989C47.5508 31.8618 47.1674 32.1572 46.7714 32.4715C46.3754 32.7795 46.036 33.0498 46.0171 33.0686C45.9983 33.0875 45.7343 33.3012 45.42 33.54C45.112 33.7789 44.7663 34.0429 44.6595 34.1309C44.4457 34.3069 44.4269 34.3195 43.7857 34.8286C43.5468 35.0172 43.3017 35.2058 43.2514 35.2497C43.2011 35.2938 42.3777 35.9412 41.4286 36.6829C40.4794 37.4309 39.6434 38.0909 39.5743 38.1475C39.5051 38.2103 38.952 38.644 38.3486 39.1155C37.7452 39.5869 36.5949 40.492 35.7903 41.1269C34.992 41.7618 33.9737 42.56 33.5337 42.9058C33.0937 43.2515 32.5343 43.6915 32.2891 43.8863L31.8429 44.2446L31.6543 44.1126C31.5537 44.0372 31.4532 43.9618 31.4343 43.9429C31.4154 43.924 31.2206 43.7669 30.9943 43.5972C30.4851 43.2012 30.372 43.1132 30.2777 43.0315C30.24 42.9938 30.0954 42.8806 29.9572 42.78C29.8188 42.6732 29.6931 42.5789 29.6743 42.56C29.6554 42.5412 29.3789 42.3149 29.052 42.0572C28.7251 41.8058 28.4109 41.5606 28.3606 41.5166C28.304 41.4664 27.6251 40.932 26.8457 40.3223C26.0726 39.7126 25.3371 39.1343 25.2114 39.04C24.9663 38.8389 23.772 37.896 19.8371 34.7972C18.3537 33.628 16.7131 32.3332 16.1914 31.9246C14.0543 30.2275 13.8217 30.0515 13.7463 30.0578C13.7086 30.0578 13.1429 30.4978 12.4891 31.0258H12.4892Z" fill="white"/>
<path fill-rule="evenodd" clip-rule="evenodd" d="M17.1281 36.9092C16.762 36.6202 16.5235 36.4318 16.3117 36.2645C15.9019 35.9408 15.5923 35.6962 14.6515 34.9544C11.4614 32.4415 11.1434 32.198 11.1808 32.1154C11.1864 32.103 11.2001 32.0942 11.2133 32.0818C11.2571 32.038 11.6973 31.6694 12.2426 31.2258C12.3228 31.1605 12.4054 31.0936 12.4893 31.0259C12.5739 30.9575 12.6572 30.8905 12.7379 30.8258C13.2807 30.3912 13.7136 30.0578 13.7464 30.0578C13.8218 30.0515 14.0544 30.2275 16.1915 31.9247C16.5543 32.2088 17.458 32.9214 18.4737 33.7222C18.9188 34.0732 19.3853 34.441 19.8373 34.7972C23.7721 37.8961 24.9664 38.839 25.2115 39.0401C25.3373 39.1344 26.0727 39.7126 26.8459 40.3224C27.6253 40.9321 28.3041 41.4664 28.3607 41.5167C28.411 41.5607 28.7253 41.8058 29.0521 42.0572C29.379 42.315 29.6555 42.5412 29.6744 42.5601C29.6874 42.5731 29.7512 42.622 29.8349 42.6861C29.8726 42.715 29.9143 42.7469 29.9573 42.7801C30.0955 42.8807 30.2401 42.9938 30.2779 43.0315C30.3721 43.1132 30.4853 43.2012 30.9944 43.5972C31.2207 43.767 31.4155 43.9241 31.4344 43.943C31.4531 43.9617 31.5521 44.036 31.6518 44.1108L31.6544 44.1127L31.843 44.2447L32.2893 43.8864C32.5344 43.6915 33.0939 43.2516 33.5339 42.9058C33.5961 42.8569 33.6699 42.7989 33.7531 42.7337C34.2576 42.3375 35.1051 41.672 35.7904 41.127C36.595 40.4921 37.7453 39.5869 38.3487 39.1155C38.9521 38.6441 39.5053 38.2104 39.5744 38.1475C39.6435 38.091 40.4795 37.431 41.4287 36.683C42.3779 35.9412 43.2013 35.2938 43.2515 35.2498C43.2824 35.2229 43.3863 35.1417 43.5171 35.0395C43.5998 34.9748 43.6933 34.9017 43.7859 34.8287C43.955 34.6943 44.0809 34.5946 44.1784 34.5172C44.4505 34.3015 44.5023 34.2605 44.6596 34.1309C44.7317 34.0715 44.9128 33.9319 45.1176 33.7739C45.2161 33.6979 45.3201 33.6177 45.4201 33.5401C45.7344 33.3012 45.9984 33.0875 46.0173 33.0687C46.0361 33.0498 46.3755 32.7795 46.7715 32.4715C46.926 32.349 47.0785 32.2293 47.2112 32.1251C47.4188 31.9622 47.5779 31.8373 47.6201 31.799C47.6893 31.7424 48.2173 31.3275 48.7955 30.875C49.7635 30.1081 49.9961 29.9698 50.0527 30.1018C50.0653 30.1332 50.2098 30.259 50.3795 30.391C50.7127 30.6424 51.6241 31.3778 51.6744 31.4344C51.6851 31.4451 51.7565 31.5023 51.8587 31.5842C51.9367 31.6467 52.0326 31.7236 52.1333 31.8052L52.5607 32.1384L52.4161 32.2641C52.4133 32.2665 52.4101 32.2691 52.4068 32.272C52.3141 32.3495 52.0356 32.5731 51.7687 32.7733C51.726 32.8063 51.6842 32.8385 51.6439 32.8696C51.4236 33.0395 51.2504 33.1731 51.2344 33.1944C51.2156 33.2132 51.0333 33.3641 50.8259 33.5212C50.7248 33.6009 50.6021 33.6977 50.4681 33.8033C49.8519 34.2893 48.9965 34.9638 48.9087 35.0361C48.8806 35.0607 48.6639 35.2307 48.3486 35.4779C48.1 35.6729 47.7901 35.9161 47.463 36.1738L46.9713 36.5613C45.3721 37.8214 44.8011 38.2714 43.6601 39.1658C43.0379 39.6561 42.4721 40.1024 42.403 40.159C42.3953 40.1653 42.3862 40.1727 42.3759 40.1812C42.2936 40.2488 42.134 40.3797 41.9944 40.4858C41.8373 40.6052 41.6675 40.7372 41.6173 40.7812C41.391 40.9698 39.7441 42.2647 38.8515 42.9561L38.7197 43.0601C38.2418 43.4367 37.8427 43.7512 37.8081 43.7858C37.7908 43.8003 37.7508 43.832 37.6999 43.8725C37.6401 43.92 37.5651 43.9795 37.4939 44.0373C37.3698 44.1318 37.0901 44.3541 36.8533 44.5423L36.8087 44.5778C36.3247 44.9612 33.383 47.2806 32.4464 48.0098C32.1258 48.2675 31.8367 48.4687 31.8053 48.4561C31.7739 48.4435 30.391 47.3624 28.719 46.0487C28.2135 45.65 27.66 45.2137 27.1062 44.7772C25.8351 43.7753 24.5626 42.7723 23.8664 42.2207C23.5574 41.9774 23.2586 41.7424 22.9902 41.5313C22.385 41.0554 21.9348 40.7015 21.8739 40.6492C21.7182 40.5259 21.5722 40.4108 21.2936 40.1912C20.9757 39.9407 20.4852 39.5541 19.611 38.8641C18.8606 38.2771 17.9859 37.5864 17.4446 37.1591C17.3194 37.0602 17.212 36.9754 17.1281 36.9092ZM19.4873 39.0213C18.7367 38.434 17.8617 37.7432 17.3206 37.3159C17.1954 37.2171 17.088 37.1323 17.0043 37.0663C16.638 36.7771 16.3994 36.5886 16.1876 36.4214C15.7779 36.0977 15.4684 35.8532 14.5278 35.1115C14.3416 34.9649 14.1652 34.8259 13.9981 34.6943C12.5189 33.5294 11.7639 32.9348 11.39 32.6227C11.2857 32.5356 11.2083 32.4683 11.1521 32.4154C11.099 32.3655 11.0534 32.3182 11.0238 32.2722C10.9928 32.2241 10.9488 32.1271 11.0044 32.0209C11.0244 31.9828 11.051 31.9584 11.0609 31.9495C11.0656 31.9452 11.0708 31.9408 11.0731 31.9388C11.0734 31.9385 11.0737 31.9383 11.0739 31.9381C11.0751 31.9371 11.0758 31.9365 11.0762 31.9361C11.1183 31.8959 11.2804 31.759 11.4972 31.5791C11.6214 31.476 11.7672 31.3559 11.9262 31.2258H11.9233L12.3636 30.8702C12.6911 30.6057 12.9972 30.3628 13.2266 30.1855C13.3411 30.0971 13.4377 30.0241 13.5089 29.9727C13.5442 29.9472 13.5754 29.9255 13.6003 29.9094C13.6125 29.9017 13.6263 29.8932 13.6402 29.8859C13.6469 29.8823 13.6571 29.8772 13.6692 29.8726C13.6756 29.8701 13.6994 29.8608 13.7309 29.8584C13.7305 29.8585 13.7301 29.8585 13.7297 29.8585M19.4873 39.0213C20.3621 39.7117 20.8525 40.0982 21.1702 40.3486C21.4468 40.5666 21.5925 40.6815 21.747 40.8039C21.8225 40.8676 22.2783 41.226 22.8816 41.7004C23.1466 41.9088 23.4401 42.1396 23.7423 42.3776C24.4388 42.9295 25.7118 43.9329 26.9831 44.9349C27.5367 45.3712 28.09 45.8073 28.5951 46.2057C29.4312 46.8626 30.1954 47.4617 30.7543 47.898C31.0337 48.1161 31.2621 48.2937 31.4227 48.4177C31.5029 48.4796 31.5667 48.5285 31.6116 48.5625C31.6339 48.5793 31.6523 48.5931 31.666 48.6031C31.6728 48.608 31.6795 48.6128 31.6855 48.6169C31.6884 48.6189 31.6924 48.6216 31.697 48.6244C31.6973 48.6246 31.7119 48.6341 31.7309 48.6417C31.7905 48.6656 31.8434 48.6543 31.856 48.6516C31.8766 48.6471 31.8942 48.6405 31.9055 48.6358C31.9288 48.6261 31.9526 48.6133 31.9737 48.6011C32.0173 48.5759 32.0717 48.5402 32.1317 48.4985C32.2523 48.4145 32.408 48.2972 32.5705 48.1667C33.5091 47.4359 36.449 45.1179 36.9329 44.7346L36.9768 44.6997C37.2146 44.5107 37.4927 44.2895 37.615 44.1964L37.6197 44.1927C37.6862 44.1388 37.7606 44.0798 37.8214 44.0314C37.8752 43.9886 37.9184 43.9543 37.9362 43.9394L37.9432 43.9336L37.9496 43.9272C37.9493 43.9275 37.9742 43.9062 38.0375 43.8552C38.0947 43.8091 38.1733 43.7464 38.2679 43.6715C38.4253 43.5467 38.6257 43.3888 38.8426 43.2178C38.886 43.1836 38.9301 43.1488 38.9746 43.1137C39.8664 42.423 41.5157 41.1262 41.7453 40.9349L41.749 40.9317C41.7929 40.8933 41.9561 40.7661 42.1154 40.6451C42.2583 40.5365 42.421 40.4029 42.5029 40.3357C42.5132 40.3273 42.5221 40.3199 42.5297 40.3137C42.5969 40.2587 43.1601 39.8144 43.7838 39.323C44.9244 38.4288 45.4956 37.9787 47.0933 36.7198L47.5868 36.3309C47.8998 36.0842 48.1996 35.849 48.4451 35.6565C48.7638 35.4065 48.9908 35.2284 49.0359 35.1905C49.1218 35.1197 49.974 34.4477 50.5906 33.9615C50.7243 33.8561 50.8469 33.7594 50.9482 33.6795C51.0533 33.5998 51.1517 33.522 51.2266 33.4615C51.296 33.4053 51.3571 33.3546 51.376 33.3356L51.3835 33.328C51.3833 33.3282 51.3837 33.3279 51.3835 33.328C51.3897 33.3226 51.3999 33.314 51.4134 33.303C51.441 33.2805 51.4799 33.2497 51.528 33.2122C51.5944 33.1604 51.676 33.0974 51.766 33.028C51.8058 32.9973 51.8473 32.9653 51.8899 32.9324C52.1685 32.7233 52.4601 32.4889 52.5454 32.4168L52.8752 32.1299L52.2592 31.6499C52.2587 31.6495 52.2582 31.649 52.2577 31.6486C52.1571 31.5671 52.0613 31.4903 51.9837 31.4281L51.9488 31.4001C51.9071 31.3667 51.8726 31.339 51.8475 31.3186C51.8338 31.3074 51.8251 31.3002 51.82 31.296C51.8161 31.2928 51.8144 31.2914 51.8143 31.2914C51.7959 31.2728 51.7694 31.25 51.7481 31.2317C51.7164 31.2046 51.6744 31.1695 51.6252 31.1287C51.5266 31.0472 51.3969 30.9415 51.2586 30.8301C50.9834 30.6082 50.6709 30.3603 50.5012 30.2322C50.4189 30.1682 50.3441 30.1068 50.2893 30.0585C50.2616 30.0341 50.241 30.0149 50.2278 30.0014L50.2243 29.9978C50.2032 29.9589 50.1695 29.9178 50.1169 29.8895C50.0542 29.8558 49.9901 29.854 49.9404 29.8611C49.851 29.8738 49.7557 29.9231 49.6615 29.9807C49.4631 30.1021 49.1532 30.3365 48.6718 30.7179C48.0952 31.1691 47.5648 31.5858 47.4935 31.6442L47.4856 31.6509C47.4485 31.6847 47.303 31.7988 47.1063 31.9532C46.9714 32.059 46.8126 32.1836 46.648 32.3143C46.4498 32.4684 46.2657 32.6131 46.1287 32.7218C46.0601 32.7762 46.0031 32.8218 45.9618 32.8551C45.9278 32.8825 45.8906 32.9125 45.876 32.9271C45.8781 32.925 45.8768 32.9261 45.8702 32.9316C45.8637 32.937 45.8521 32.9468 45.8336 32.9619C45.8022 32.9876 45.7583 33.0229 45.705 33.0654C45.5983 33.1502 45.4549 33.2624 45.2991 33.3809L45.2976 33.3821C45.2001 33.4576 45.0979 33.5365 45.0003 33.6118C44.7932 33.7715 44.6071 33.9151 44.5324 33.9765C44.3766 34.1049 44.3265 34.1446 44.0554 34.3596C43.9578 34.4369 43.8317 34.5369 43.6617 34.6719C43.5758 34.7397 43.4868 34.8092 43.406 34.8724C43.2686 34.9798 43.1547 35.0688 43.12 35.0992C43.12 35.0991 43.1164 35.1022 43.107 35.1099L43.0727 35.1375C43.0439 35.1605 43.0043 35.1921 42.9548 35.2312C42.856 35.3095 42.7189 35.4175 42.5536 35.5475C42.223 35.8074 41.78 36.1546 41.3056 36.5254C40.3579 37.2722 39.5188 37.9346 39.4478 37.9927L39.4399 37.9995C39.378 38.0557 38.8351 38.4817 38.2256 38.9579C37.6218 39.4296 36.4712 40.335 35.6665 40.97C34.9817 41.5146 34.1341 42.1802 33.6295 42.5764C33.5464 42.6417 33.4726 42.6996 33.4103 42.7486C32.9705 43.0941 32.4105 43.5345 32.1648 43.7298L31.8348 43.9948L31.7718 43.9507C31.7222 43.9135 31.6738 43.8772 31.6353 43.8477C31.6157 43.8327 31.5994 43.8201 31.5874 43.8105C31.5772 43.8024 31.5734 43.7991 31.5734 43.7991C31.5733 43.7991 31.5742 43.7999 31.5757 43.8014C31.5556 43.7814 31.4899 43.7281 31.4164 43.6699C31.3361 43.6063 31.23 43.5239 31.1158 43.4383C30.6127 43.047 30.5013 42.9602 30.413 42.884C30.3568 42.8303 30.2068 42.7144 30.0773 42.6201C30.035 42.5874 29.9932 42.5554 29.9558 42.5268C29.9329 42.5092 29.9117 42.4929 29.893 42.4786C29.8675 42.459 29.8467 42.4429 29.8314 42.4307C29.8202 42.4218 29.815 42.4175 29.8136 42.4163C29.8125 42.4155 29.8136 42.4165 29.8158 42.4187C29.8026 42.4054 29.7715 42.3796 29.7427 42.3558C29.7084 42.3273 29.6613 42.2887 29.6048 42.2429C29.4917 42.1512 29.3401 42.0296 29.176 41.9002L29.1741 41.8987C28.8441 41.6449 28.5376 41.4056 28.4927 41.3664M26.9694 40.1651C26.2049 39.5622 25.4729 38.9866 25.3351 38.8828C25.0806 38.6743 23.877 37.7241 19.9611 34.6402C19.5094 34.2842 19.0431 33.9165 18.5982 33.5657C17.5827 32.765 16.6788 32.0522 16.3154 31.7676C15.2478 30.9199 14.6537 30.4502 14.3171 30.1934C14.1499 30.0658 14.0411 29.9868 13.9676 29.9398C13.9312 29.9165 13.8966 29.8965 13.8635 29.8825C13.8304 29.8685 13.7847 29.8542 13.7309 29.8584" fill="white"/>
</svg>
