<svg width="64" height="64" viewBox="0 0 64 64" fill="none" xmlns="http://www.w3.org/2000/svg">
<rect width="64" height="64" rx="16" fill="white"/>
<path d="M29.5456 23.8246C26.9079 26.4622 24.1823 29.0267 21.6061 31.7377C19.6982 33.7453 19.8476 36.6321 21.8465 38.6954C24.2175 41.1308 26.6588 43.496 29.0679 45.8905C29.9794 46.8342 29.9677 47.9127 29.2994 48.915C28.681 49.8382 27.793 50.4039 26.5884 49.8851C26.02 49.6064 25.502 49.235 25.0557 48.7861C22.8312 46.5382 20.554 44.3401 18.353 42.0658C14.4902 38.077 14.4462 32.0777 18.3324 28.1152C23.7925 22.535 29.3346 17.0427 34.8533 11.5269C36.0696 10.3107 37.5965 10.2315 38.593 11.269C39.5894 12.3066 39.4957 13.6606 38.3175 14.9003C37.0807 16.2016 35.839 17.497 34.5925 18.7865C33.2736 20.8322 31.5063 22.4236 29.5456 23.8246V23.8246Z" fill="#070706"/>
<path d="M39.091 37.5436H31.2014C29.4429 37.5436 28.1856 36.4797 28.2149 35.0466C28.2412 33.6603 29.4165 32.6404 31.1457 32.6345C36.5032 32.6091 41.8606 32.6091 47.2181 32.6345C48.9297 32.6345 49.8969 33.5812 49.9115 35.0612C49.9115 36.5969 48.9209 37.5231 47.1214 37.5407C44.4515 37.5641 41.7698 37.5436 39.091 37.5436Z" fill="#B4B2B1"/>
<path d="M26.5884 49.8793C29.191 49.5628 29.9852 48.2791 29.0678 45.8846C31.8111 47.3237 33.8304 47.0042 36.049 44.7856C37.1861 43.6485 38.3057 42.4937 39.4692 41.3829C40.6327 40.2722 41.9369 40.2458 42.9686 41.2657C44.0002 42.2856 43.9797 43.6104 42.8836 44.7651C41.4182 46.2774 39.985 47.7985 38.4376 49.2023C35.1316 52.2005 29.8474 52.4643 26.5884 49.8793V49.8793Z" fill="#EAA240"/>
<path d="M29.5454 23.8245C31.1183 22.0391 32.804 20.3563 34.5922 18.7865C38.4462 19.9823 40.7088 23.1329 43.2879 25.8732C44.129 26.77 43.789 28.1826 42.8248 29.0003C42.386 29.3976 41.8106 29.6097 41.2189 29.5922C40.6273 29.5747 40.0653 29.329 39.6508 28.9065C38.5179 27.912 37.4499 26.8459 36.4533 25.7149C34.5571 23.467 32.2915 22.8574 29.5454 23.8245V23.8245Z" fill="#EAA340"/>
</svg>
