<svg width="64" height="64" viewBox="0 0 64 64" fill="none" xmlns="http://www.w3.org/2000/svg">
<rect width="64" height="64" rx="16" fill="white"/>
<path d="M64 9V48.5355H61.965C60.744 48.5355 59.6248 48.7393 58.4038 48.7393L55.2496 48.9431L49.8569 49.1469L46.4992 49.3507L41.31 49.5545L37.9523 49.7583L32.9666 49.9621C31.7456 49.9621 30.8299 50.1659 29.6089 50.1659L24.2162 50.5735C22.9952 50.5735 22.0795 50.7773 20.8585 50.7773L15.4658 50.981C14.2448 50.981 13.3291 51.1848 12.1081 51.1848L6.91892 51.5924C5.69793 51.5924 4.78219 51.7962 3.56121 51.7962L0 52V12.2607H1.22099C3.25596 12.0569 4.98569 12.0569 6.81717 12.0569L10.3784 11.8531L15.9746 11.6493L19.7393 11.4455L25.3355 11.2417L28.6932 11.0379L32.4579 10.8341L36.2226 10.6303L41.6153 10.4265L45.1765 10.2227L48.9412 10.019L52.7059 9.81517L56.4706 9.61137L60.0318 9.40758C60.2353 9.20379 64 9 64 9V9ZM49.5517 25.7109C50.1622 25.5071 50.5692 25.0995 51.1797 24.8957C53.0111 24.0806 54.7409 23.0616 56.3688 22.3483C56.9793 22.1445 57.1828 21.737 57.1828 21.1256V16.6422C56.7758 16.6422 56.3688 16.846 56.1653 16.846C54.3339 17.0498 52.6041 17.0498 50.7727 17.0498C49.7552 17.0498 48.6359 17.2536 47.6184 17.2536C45.9905 17.2536 44.6677 17.4573 43.0397 17.4573H41.8188C40.5978 16.846 39.4785 16.4384 38.2576 15.827L38.0541 16.0308C36.6296 18.3744 35.1033 20.6161 33.6789 22.9597C33.4754 23.3673 33.6789 23.3673 33.8824 23.3673C34.8998 23.7749 35.9173 24.1825 36.8331 24.59C37.4436 24.7938 37.6471 24.59 37.8506 24.1825C38.461 23.1635 39.275 22.0427 39.8855 21.0237C39.8855 20.8199 40.089 20.8199 40.2925 20.8199C40.903 20.8199 41.31 20.8199 41.9205 20.6161C42.938 20.6161 44.0572 20.4123 45.0747 20.4123C46.7027 20.4123 48.0254 20.2085 49.6534 20.2085H50.2639C51.0779 20.2085 51.8919 20.2085 52.6041 20.0047C52.8076 20.6161 52.6041 20.6161 52.1971 20.8199C50.1622 21.8389 48.0254 22.8578 46.0922 23.7749C45.8887 23.7749 45.6852 23.9787 45.4817 23.7749C44.0572 23.3673 42.7345 22.7559 41.5135 22.1446C40.496 21.737 40.496 21.737 39.8855 22.7559C39.8855 22.9597 39.682 22.9597 39.682 23.1635C39.275 23.7749 38.868 24.1825 38.6645 24.7938L41.8188 26.0166C39.9873 26.8318 38.4611 27.8507 36.6296 28.564C36.4261 28.7678 36.2226 28.7678 36.0191 28.7678H34.3911V31.7227H37.1383C37.3418 31.7227 37.5453 31.7227 37.7488 31.519C40.089 30.2962 42.3275 29.3791 44.6677 28.1564C45.4817 27.7488 46.2957 27.545 47.2114 27.9526C49.0429 28.7678 50.7727 29.3791 52.6041 29.9905C53.6216 30.3981 54.4356 30.8057 55.3514 30.8057C55.7583 30.8057 56.1653 30.8057 56.5723 30.6019L57.7933 30.3981V27.2393C57.3863 27.2393 56.9793 27.4431 56.5723 27.4431H55.3514C54.5374 27.2393 53.7234 26.8318 53.2146 26.628C51.4849 26.3223 50.4674 26.1185 49.5517 25.7109V25.7109ZM20.3498 18.782V32.1303C19.1288 32.1303 18.0095 32.3341 16.7886 32.3341C14.9571 32.5379 13.2273 32.5379 11.3959 32.5379C10.3784 32.5379 9.56439 32.5379 8.64865 32.7417C8.03816 32.7417 7.42766 32.7417 6.81717 32.9455V36.1043L16.1781 35.4929C14.9571 37.1232 13.8378 38.4479 12.8204 40.0782C12.4134 40.6896 11.8029 41.0972 10.9889 41.0972H8.64865C8.03816 41.0972 7.42766 41.0972 6.81717 41.3009V44.0521C6.81717 44.2559 7.02067 44.2559 7.22417 44.2559C9.05564 44.0521 10.7854 44.0521 12.8204 43.8483C13.6343 43.8483 14.6518 43.8483 15.3641 43.6446C15.5676 43.6446 15.5676 43.6446 15.7711 43.4408C16.3816 42.6256 16.7886 42.0142 17.399 41.3009C18.8235 39.4668 20.1463 37.7346 21.3673 35.9005C21.7742 35.4929 21.9777 34.8815 22.7917 34.8815C24.6232 34.8815 26.3529 34.6777 28.1844 34.6777C28.9984 34.6777 29.8124 34.6777 30.3211 34.4739C30.5246 34.4739 30.7281 34.2701 30.7281 34.2701V31.7227L30.5246 31.519C29.5072 31.519 28.4897 31.519 27.5739 31.7227C26.7599 31.7227 25.9459 31.9265 25.2337 31.9265V18.5782L20.3498 18.782V18.782ZM33.4754 35.9005H33.8824C34.8998 35.9005 35.9173 35.6967 36.6296 35.6967C37.6471 35.6967 38.6645 35.6967 39.5803 35.4929H40.1908L42.938 35.2891V41.8104L47.7202 41.6066V35.0853C48.1272 35.0853 48.5342 34.8815 48.9412 34.8815C50.1622 34.8815 51.0779 34.6777 52.2989 34.6777C53.9269 34.6777 55.2496 34.4739 56.8776 34.4739H57.2846V31.3152C56.4706 31.3152 55.4531 31.519 54.7409 31.519C53.1129 31.519 51.7901 31.7227 50.1622 31.7227H49.7552C49.1447 31.7227 48.5342 31.7227 47.7202 31.9265V30.2962L42.938 30.5V32.1303C41.717 32.1303 40.5978 32.3341 39.3768 32.3341C37.7488 32.3341 36.4261 32.5379 34.7981 32.5379C34.3911 32.5379 33.9841 32.5379 33.5771 32.7417C33.4754 32.8436 33.4754 35.9005 33.4754 35.9005V35.9005ZM22.4865 35.6967L26.0477 43.0332L31.2369 42.8294V42.6256C30.2194 40.4858 29.1002 38.4479 28.0827 36.3081C27.8792 35.6967 27.4722 35.4929 26.8617 35.6967C26.2512 35.6967 25.6407 35.6967 25.0302 35.9005C24.318 35.6967 23.504 35.6967 22.4865 35.6967V35.6967ZM33.4754 42.6256H34.0859C35.3068 42.6256 36.4261 42.4218 37.6471 42.4218C38.0541 42.4218 38.0541 42.218 38.2576 42.0142C39.0715 40.5877 39.8855 39.263 40.3943 37.6327C40.5978 37.2251 40.8013 36.6137 41.2083 36.2062C40.8013 36.2062 40.3943 36.41 39.9873 36.41C38.9698 36.41 38.1558 36.41 37.2401 36.6137C36.8331 36.6137 36.4261 36.8175 36.2226 37.2251C36.0191 37.8365 35.6121 38.2441 35.4086 38.6517L33.4754 42.6256V42.6256ZM58.0986 41.1991V40.9953L55.1479 35.7986C54.9444 35.5948 54.7409 35.391 54.5374 35.391C53.3164 35.5948 52.1971 35.5948 50.9762 35.5948C50.7727 35.5948 50.3657 35.5948 50.1622 35.7986C51.1797 37.6327 52.2989 39.3649 53.3164 41.1991C53.3164 41.4028 53.5199 41.6066 53.7234 41.6066H56.6741C57.2846 41.1991 57.6916 41.1991 58.0986 41.1991ZM17.806 30.5C16.7886 29.0735 15.7711 27.9526 14.8553 26.7299C14.4483 26.1185 14.0413 25.7109 13.2273 25.7109C12.2099 25.9147 11.1924 25.9147 10.2766 25.9147C9.86964 25.9147 9.46264 25.9147 9.25914 26.1185V26.3223C10.2766 27.545 11.2941 28.8697 12.2099 30.0924C12.6169 30.7038 13.0238 30.9076 13.8378 30.9076C15.0588 30.7038 16.1781 30.7038 17.6025 30.7038C17.6025 30.7038 17.6025 30.5 17.806 30.5ZM17.9078 24.6919C17.7043 24.4882 17.7043 24.2844 17.5008 24.0806C16.6868 23.0616 15.8728 22.0427 15.1606 20.9218C14.5501 20.3104 14.1431 19.6991 13.1256 19.9028C12.3116 20.1066 11.4976 19.9028 10.7854 20.1066C10.1749 20.1066 9.76789 20.1066 9.15739 20.3104C10.3784 21.9408 11.4976 23.4692 12.7186 24.8957C12.7186 25.0995 12.9221 25.0995 13.1256 25.0995C14.1431 25.0995 15.1606 24.8957 16.0763 24.8957C16.1781 24.8957 17.9078 24.6919 17.9078 24.6919V24.6919Z" fill="#F04142"/>
</svg>
