<svg width="64" height="64" viewBox="0 0 64 64" fill="none" xmlns="http://www.w3.org/2000/svg">
<rect width="64" height="64" rx="16" fill="#FFE666"/>
<path d="M13.5 33.5L25 26.5L31.5 28.5L40 33.5L43 38.5L39.5 45.5L33.5 48.5H27L21 47.5L13 42.5L13.5 33.5Z" fill="white" stroke="white"/>
<path d="M47.9095 35.6653C46.869 32.5606 43.6727 31.4268 42.9448 31.3592C42.2172 31.2916 41.5577 30.8933 42.0404 30.0699C42.5233 29.2465 43.414 26.8504 41.7006 25.163C39.9867 23.4689 36.2391 24.1101 33.5869 25.2036C30.9415 26.297 31.0842 25.5343 31.1658 24.7852C31.2544 23.9955 32.6824 19.5812 28.3162 19.048C22.5967 18.3528 15.2587 25.3791 12.6675 29.4289C8.75008 35.5441 9.36921 39.6815 9.36921 39.6815H9.3964C9.86557 45.3918 18.3395 49.941 28.7243 49.941C37.654 49.941 45.1756 46.5729 47.3994 41.9967C47.3994 41.9967 47.4061 41.9764 47.4263 41.9426C47.6578 41.4501 47.8346 40.9503 47.9436 40.4306C48.2562 39.2023 48.4946 37.4206 47.9095 35.6653V35.6653ZM27.4391 47.4436C20.0465 47.4436 14.0482 43.5016 14.0482 38.6419C14.0482 33.7824 20.0397 29.8407 27.4391 29.8407C34.8316 29.8407 40.8301 33.7824 40.8301 38.6419C40.8301 43.5083 34.8316 47.4436 27.4391 47.4436V47.4436Z" fill="#E71F19"/>
<path d="M45.645 27.9372C45.7808 27.998 45.9237 28.0248 46.0666 28.0248C46.4882 28.0248 46.8963 27.775 47.0661 27.3633C47.3451 26.7087 47.4877 26.0136 47.4877 25.2912C47.4877 22.362 45.0873 19.9792 42.1355 19.9792C41.4146 19.9792 40.7142 20.1209 40.0544 20.3977C39.5034 20.6272 39.2452 21.2617 39.4762 21.8152C39.7074 22.3618 40.3468 22.6183 40.9042 22.3888C41.2989 22.2266 41.7137 22.139 42.1422 22.139C43.8968 22.139 45.3181 23.5565 45.3181 25.2912C45.3181 25.7162 45.2368 26.1282 45.0664 26.5194C45.0096 26.6502 44.9796 26.791 44.978 26.9336C44.9764 27.0762 45.0034 27.2177 45.0572 27.3497C45.1111 27.4818 45.1908 27.6017 45.2917 27.7025C45.3925 27.8033 45.5125 27.8829 45.6446 27.9367L45.6451 27.9372H45.645Z" fill="#F5AA15"/>
<path d="M42.0744 13.3511C40.8571 13.3511 39.6533 13.5266 38.4971 13.864C37.6336 14.1205 37.1439 15.0181 37.3956 15.8754C37.6538 16.7327 38.5583 17.2187 39.4223 16.9689C40.2839 16.7178 41.1769 16.5905 42.0744 16.5909C47.1956 16.5909 51.3645 20.7286 51.3645 25.8111C51.3645 26.7221 51.2283 27.6265 50.9699 28.4904C50.7117 29.3477 51.1944 30.2524 52.0579 30.5085C52.2146 30.5561 52.3775 30.5761 52.5341 30.5761C53.2346 30.5761 53.8806 30.1239 54.0984 29.4286C54.4521 28.2612 54.6356 27.0462 54.6356 25.8111C54.6289 18.9397 48.9976 13.3511 42.0744 13.3511V13.3511Z" fill="#F5AA15"/>
<path d="M26.2012 33.0532C22.2567 33.0532 19.0603 35.8272 19.0603 39.2564C19.0603 42.6849 22.2567 45.4593 26.2012 45.4593C30.1457 45.4593 33.342 42.6851 33.342 39.2564C33.342 35.8275 30.1456 33.0532 26.2012 33.0532ZM23.8686 43.2857C22.4879 43.2857 21.3659 42.1722 21.3659 40.8019C21.3659 39.4319 22.4881 38.3181 23.8686 38.3181C25.2492 38.3181 26.3712 39.4318 26.3712 40.8019C26.3712 42.172 25.2492 43.2857 23.8686 43.2857ZM28.5476 38.8108C28.2485 39.3304 27.6431 39.5465 27.2011 39.2898C26.7591 39.0403 26.6503 38.4124 26.9494 37.8928C27.2487 37.3729 27.8539 37.1568 28.2959 37.4135C28.7379 37.67 28.8469 38.2978 28.5476 38.8108H28.5476Z" fill="#040000"/>
</svg>
