<svg width="64" height="64" viewBox="0 0 64 64" fill="none" xmlns="http://www.w3.org/2000/svg">
<rect width="64" height="64" rx="16" fill="white"/>
<path d="M46.1638 17.8046C44.3355 15.9673 42.1657 14.5029 39.7804 13.4876C37.3098 12.447 34.656 11.9109 31.9752 11.9109C29.2944 11.9109 26.6406 12.447 24.17 13.4876C19.3634 15.5451 15.5361 19.3769 13.4876 24.188C12.437 26.6535 11.8975 29.3065 11.9019 31.9865V33.0107C11.9378 34.1382 12.3736 35.2208 13.1282 36.0609C13.8515 36.8919 14.8218 37.4714 15.8999 37.7185C18.4874 38.1497 20.8728 39.3806 22.7236 41.2404C24.5788 43.0552 25.8142 45.4091 26.2589 47.9652C26.771 50.2876 28.7835 51.9677 31.1554 52.062H31.9775C34.6593 52.071 37.3142 51.532 39.7759 50.4763C47.2195 47.3497 52.062 40.0589 52.053 31.9865C52.062 29.3091 51.523 26.6542 50.4763 24.188C49.4655 21.8027 48.0011 19.633 46.1638 17.8046V17.8046ZM35.5712 26.3667C37.1165 27.2472 38.5271 28.3523 39.7579 29.6371C40.3734 30.248 40.7058 31.0835 40.6833 31.946C40.7103 32.8085 40.3734 33.6396 39.7579 34.246C38.5271 35.5443 37.1165 36.6628 35.5712 37.5703C34.0079 38.4956 32.3144 39.174 30.5445 39.5783C29.7089 39.7894 28.8239 39.6591 28.0872 39.2189C27.3415 38.7787 26.789 38.0644 26.5509 37.2333C26.0702 35.1849 25.8277 33.4105 25.8277 31.9056C25.8007 30.1042 26.0478 28.3029 26.5599 26.5734C26.807 25.7693 27.3595 25.091 28.0962 24.6867C28.8329 24.2419 29.7089 24.1072 30.5445 24.3048C32.3054 24.7585 33.9945 25.4548 35.5712 26.3667V26.3667Z" fill="url(#paint0_linear_154_272)"/>
<defs>
<linearGradient id="paint0_linear_154_272" x1="21.0228" y1="13.7044" x2="46.6364" y2="49.7726" gradientUnits="userSpaceOnUse">
<stop stop-color="#F7756E"/>
<stop offset="1" stop-color="#F3271E"/>
</linearGradient>
</defs>
</svg>
