<?xml version="1.0" standalone="no"?><!DOCTYPE svg PUBLIC "-//W3C//DTD SVG 1.1//EN" "http://www.w3.org/Graphics/SVG/1.1/DTD/svg11.dtd"><svg t="1644445560451" class="icon" viewBox="0 0 1024 1024" version="1.1" xmlns="http://www.w3.org/2000/svg" p-id="5279" xmlns:xlink="http://www.w3.org/1999/xlink" width="200" height="200"><defs><style type="text/css"></style></defs><path d="M445.6 422.4L491.1 534c7.2 17.7 20.9 31.9 38.4 39.7l107.9 48.6-270.1 154.3v-599c0-35.9-22.9-67.8-56.8-79.3l-97-32.9c-19.2-6.5-39.1 7.8-39.1 28v679.7c0 68.3 37.7 131.1 98 163.2l2.4 1.3c57.8 30.8 126.8 30.1 183.4-1.8 88.9-50 223.2-125.5 309-173.7 50.9-28.6 82.3-82.4 82.3-140.7 0-69.3-44.2-130.8-109.8-153l-256.2-86.5c-24.7-8.3-47.8 16.3-37.9 40.5z m-25.2-61.8" fill="#666666" p-id="5280"></path></svg>