<?xml version="1.0" standalone="no"?><!DOCTYPE svg PUBLIC "-//W3C//DTD SVG 1.1//EN" "http://www.w3.org/Graphics/SVG/1.1/DTD/svg11.dtd"><svg t="1644445508718" class="icon" viewBox="0 0 1024 1024" version="1.1" xmlns="http://www.w3.org/2000/svg" p-id="3099" xmlns:xlink="http://www.w3.org/1999/xlink" width="200" height="200"><defs><style type="text/css"></style></defs><path d="M520.3 447.8h419.8c4.6 26 6.9 50.8 6.9 74.5 0 84.3-17.6 159.5-52.7 225.7-35.1 66.2-85.2 117.9-150.3 155.2-65 37.3-139.6 55.9-223.8 55.9-60.6 0-118.3-11.7-173.1-35.2-54.8-23.5-102.1-55.2-141.9-95.2-39.8-40-71.3-87.5-94.7-142.6C87.2 631 75.3 571.8 75.5 512c0-61 11.7-119 35-174.1C134 282.5 165.6 235 205.4 195c39.8-40 87-71.7 141.9-95.2C402 76.3 460.9 64.3 520.4 64.6c115.8 0 215.2 39 298.2 117.1l-121 117C650 252.5 591 229.4 520.3 229.4c-49.8 0-95.8 12.6-138.1 37.9-41.9 24.9-76.5 60.3-100.4 102.8-24.7 43.3-37 90.6-37 141.8 0 51.2 12.4 98.5 37.1 141.8 23.9 42.5 58.5 77.9 100.4 102.8 41.7 25.1 89.5 38.2 138.1 37.9 33.6 0 64.4-4.7 92.6-14 28.2-9.3 51.3-20.9 69.5-34.9 17.9-13.7 33.9-29.8 47.5-47.8 13.5-17.8 23.4-34.7 29.8-50.6 6-14.6 10.4-29.9 13-45.4H520.3V447.8z m0 0" fill="#666666" p-id="3100"></path></svg>